<svg width="21" height="20" viewBox="0 0 21 20" fill="none" xmlns="http://www.w3.org/2000/svg">
<path id="Path" fill-rule="evenodd" clip-rule="evenodd" d="M6.23502 18.8345C5.72795 19.0992 5.11451 19.0526 4.65324 18.7143C4.19197 18.3761 3.96311 17.805 4.06312 17.2418L4.87246 12.6029L1.46504 9.33755C1.04854 8.94036 0.895898 8.33995 1.07213 7.79207C1.24837 7.24419 1.72242 6.84536 2.29238 6.76548L7.02335 6.0892L9.15924 1.82842C9.41249 1.31743 9.9335 0.994156 10.5038 0.994156C11.0741 0.994156 11.5951 1.31743 11.8484 1.82842L13.9843 6.0892L18.7152 6.76548C19.2852 6.84536 19.7592 7.24419 19.9355 7.79207C20.1117 8.33995 19.9591 8.94036 19.5426 9.33755L16.1351 12.6029L16.9445 17.2428C17.0445 17.806 16.8156 18.3771 16.3544 18.7153C15.8931 19.0536 15.2797 19.1002 14.7726 18.8355L10.5038 16.6296L6.23502 18.8345Z" fill="#FEC84B" stroke="#FEC84B" stroke-width="1.5" stroke-linecap="round" stroke-linejoin="round"/>
</svg>
